<?xml version="1.0" standalone="no"?>
<!DOCTYPE svg PUBLIC "-//W3C//DTD SVG 20010904//EN"
 "http://www.w3.org/TR/2001/REC-SVG-20010904/DTD/svg10.dtd">
<svg version="1.0" xmlns="http://www.w3.org/2000/svg"
 width="426.000000pt" height="426.000000pt" viewBox="0 0 426.000000 426.000000"
 preserveAspectRatio="xMidYMid meet">
<metadata>
Created by potrace 1.14, written by Peter Selinger 2001-2017
</metadata>
<g transform="translate(0.000000,426.000000) scale(0.100000,-0.100000)"
fill="#000000" stroke="none">
<path d="M3680 3581 c-5 -11 -10 -24 -10 -28 0 -5 52 -38 115 -73 63 -36 115
-70 115 -77 0 -15 -126 -29 -285 -32 -48 -1 -52 -3 -63 -34 -14 -39 -15 -50
-4 -44 4 3 48 8 97 12 50 4 101 8 115 10 14 1 63 6 110 10 47 4 93 9 102 10 9
2 48 7 85 10 70 7 94 18 77 34 -12 12 -424 221 -435 221 -5 0 -13 -9 -19 -19z"/>
<path d="M3230 3324 c-113 -13 -421 -52 -700 -89 -194 -26 -513 -94 -710 -151
-107 -30 -224 -64 -260 -74 -100 -29 -469 -168 -515 -194 -43 -25 -98 -55
-245 -134 -160 -86 -365 -236 -516 -379 -57 -53 -122 -141 -178 -240 -81 -144
-97 -196 -103 -339 -5 -112 -4 -127 21 -201 50 -150 141 -259 326 -392 161
-116 442 -229 685 -277 11 -2 40 -8 65 -13 25 -6 63 -13 85 -16 22 -4 63 -10
90 -15 28 -4 51 -7 53 -5 16 15 70 100 67 105 -3 4 -28 8 -57 9 -203 4 -487
85 -737 210 -90 46 -187 100 -215 121 -118 88 -208 209 -250 338 -32 97 -36
147 -21 247 38 253 234 494 576 707 164 102 427 230 624 303 391 145 826 267
1140 321 11 1 85 14 165 28 80 14 168 28 195 31 28 4 75 10 105 15 30 5 78 11
105 15 28 3 112 15 188 25 76 11 142 20 147 20 6 0 10 9 10 20 0 11 -3 19 -7
19 -5 -1 -64 -8 -133 -15z"/>
<path d="M3700 2775 c0 -14 -4 -25 -10 -25 -5 0 -10 -15 -10 -33 0 -42 -21
-54 -108 -62 -80 -7 -137 -30 -162 -65 -26 -37 -25 -56 5 -76 14 -9 41 -43 61
-75 40 -67 50 -75 69 -59 11 9 5 23 -33 76 -75 105 -79 113 -63 123 57 36 327
46 460 17 103 -22 108 -28 67 -80 -18 -22 -47 -62 -65 -88 -30 -45 -31 -48
-12 -58 11 -5 24 -10 29 -10 16 0 122 172 122 197 0 12 -10 31 -21 42 -22 21
-135 51 -189 51 -48 0 -80 26 -80 66 0 18 -4 36 -10 39 -5 3 -10 15 -10 26 0
12 -7 19 -20 19 -15 0 -20 -7 -20 -25z"/>
<path d="M3660 2380 c-61 -9 -90 -23 -120 -54 l-24 -27 21 -42 c21 -41 21 -52
17 -321 -2 -154 -6 -281 -9 -284 -16 -16 -257 140 -368 239 -57 51 -229 276
-247 324 -5 14 -14 25 -19 25 -12 0 -15 -16 -36 -200 -27 -219 -75 -427 -102
-437 -28 -11 -144 70 -246 170 -142 140 -233 287 -268 432 -21 92 -37 91 -65
-5 -11 -41 -31 -99 -42 -128 -55 -134 -193 -350 -276 -432 l-56 -55 -67 35
c-124 64 -281 174 -336 235 -105 115 -175 227 -217 345 -35 100 -51 102 -80
13 -51 -155 -201 -400 -303 -496 -34 -32 -121 -99 -194 -148 -94 -63 -131 -94
-127 -104 4 -8 11 -15 17 -15 25 0 204 119 337 225 36 29 90 68 121 88 l57 35
22 -23 21 -23 39 42 39 41 40 -39 41 -40 24 23 25 23 49 -36 c27 -20 60 -36
72 -36 14 0 51 -27 97 -70 42 -39 104 -87 140 -106 61 -35 63 -37 47 -55 -12
-14 -15 -24 -8 -39 8 -18 14 -15 83 37 41 31 125 104 186 163 119 113 164 142
196 121 17 -10 25 -7 54 14 l34 26 29 -21 c25 -18 33 -20 51 -10 18 9 30 6 79
-24 31 -19 93 -71 137 -116 44 -45 106 -97 138 -116 43 -27 57 -41 57 -59 0
-23 28 -42 40 -28 4 4 13 24 20 43 7 19 24 60 37 90 42 94 66 205 98 455 6 46
19 75 29 64 2 -2 27 -45 55 -96 29 -51 75 -120 103 -153 60 -72 319 -282 401
-325 44 -23 57 -35 55 -50 -3 -22 -8 -22 144 -9 69 5 76 8 75 26 -2 31 -42 41
-113 29 -33 -6 -65 -11 -71 -11 -13 0 -2 691 12 738 6 17 3 22 -10 22 -26 0
-14 32 22 56 58 39 184 28 240 -21 l28 -23 -28 -11 c-17 -7 -25 -16 -21 -22 3
-6 6 -193 6 -414 l-1 -403 40 17 40 16 -3 422 -3 423 -25 23 c-14 13 -53 31
-87 40 -67 18 -73 18 -143 7z m-2423 -364 c31 -55 78 -131 105 -168 26 -37 48
-70 48 -73 0 -14 -26 -1 -66 31 l-45 37 -22 -21 -22 -21 -45 39 -45 39 -36
-39 c-36 -39 -37 -39 -54 -20 -23 26 -31 25 -71 -5 -18 -14 -35 -25 -38 -25
-3 0 15 28 40 62 56 77 105 164 135 246 24 63 24 63 42 41 9 -12 43 -67 74
-123z m1060 -16 c25 -52 61 -117 80 -143 20 -26 33 -51 29 -54 -3 -3 -22 5
-43 20 -32 23 -38 24 -56 12 -18 -13 -23 -11 -50 11 l-30 25 -33 -32 c-33 -32
-34 -32 -54 -14 -20 18 -21 18 -45 -5 -40 -37 -39 -18 3 56 22 38 61 118 88
179 48 109 48 109 57 75 5 -19 29 -78 54 -130z"/>
<path d="M1610 1030 c0 -17 61 -17 1320 -18 1299 0 1320 0 1320 19 0 20 -21
20 -1320 18 -1258 -1 -1320 -2 -1320 -19z"/>
<path d="M1440 855 c0 -10 10 -15 28 -15 306 -5 407 -2 410 14 3 14 -19 16
-217 16 -190 0 -221 -2 -221 -15z"/>
<path d="M2150 855 c0 -15 27 -17 235 -17 182 0 205 2 205 17 0 13 -31 15
-220 15 -189 0 -220 -2 -220 -15z"/>
<path d="M2870 855 c0 -16 3 -17 278 -16 84 0 158 3 163 6 30 19 -23 25 -222
25 -188 0 -219 -2 -219 -15z"/>
<path d="M3570 855 c0 -8 3 -15 8 -15 16 -1 282 -1 360 -1 66 1 82 4 82 16 0
13 -32 15 -225 15 -193 0 -225 -2 -225 -15z"/>
<path d="M1240 680 c0 -15 120 -16 1315 -16 1236 0 1315 1 1315 17 0 16 -78
17 -1315 16 -1194 -1 -1315 -3 -1315 -17z"/>
</g>
</svg>
